<svg width="112" height="193" viewBox="0 0 112 193" fill="none" xmlns="http://www.w3.org/2000/svg">
<g clip-path="url(#clip0_408_342)">
<path d="M15.668 192.563C15.668 192.805 15.8634 193 16.1068 193H111.561C111.804 193 112 192.805 112 192.563C112 192.32 111.804 192.126 111.561 192.126H16.1068C15.8634 192.126 15.668 192.32 15.668 192.563Z" fill="#484565"/>
<path d="M65.866 0.120654C65.866 0.120654 57.7861 -1.82985 52.8961 9.95398C48.8212 19.7763 45.9299 25.0217 49.2379 28.5848C50.4216 29.8594 52.1106 30.5463 53.8513 30.6051L72.4745 31.2148C72.4745 31.2148 79.3116 13.3554 75.1555 6.89783C70.9994 0.436554 65.866 0.120654 65.866 0.120654Z" fill="#2F2E41"/>
<path d="M69.7232 29.7308L60.7656 32.6657V19.8203H68.8935L69.7232 29.7308Z" fill="#F6A6A9"/>
<path d="M62.8493 185.385H54.456L49.5918 140.726H62.5617L62.8493 185.385Z" fill="#F6A6A9"/>
<path d="M46.2843 192.563C45.4029 192.563 44.6174 192.541 44.0237 192.486C41.7926 192.284 39.6684 190.645 38.599 189.687C38.1196 189.257 37.9647 188.57 38.2155 187.979C38.3962 187.552 38.7539 187.237 39.1964 187.112L45.0858 185.437L54.6223 179.027L54.7293 179.218C54.7698 179.288 55.7065 180.97 56.02 182.105C56.138 182.538 56.1085 182.898 55.9278 183.174C55.8024 183.369 55.6291 183.479 55.4853 183.541C55.6586 183.721 56.2007 184.085 57.8639 184.349C60.2978 184.735 60.8067 182.223 60.8288 182.116L60.8436 182.032L60.9173 181.984C62.0753 181.242 62.787 180.904 63.0341 180.974C63.189 181.018 63.4435 181.095 64.1331 187.935C64.2031 188.148 64.6862 189.723 64.358 191.226C64.0003 192.864 56.8202 192.298 55.382 192.17C55.3414 192.173 49.9647 192.555 46.2806 192.555V192.563H46.2843Z" fill="#2F2E41"/>
<path d="M81.8044 185.385H73.4147L68.5469 140.726H81.5168L81.8044 185.385Z" fill="#F6A6A9"/>
<path d="M65.2423 192.563C64.3609 192.563 63.5754 192.541 62.9817 192.486C60.7506 192.284 58.6265 190.645 57.557 189.687C57.0776 189.257 56.9227 188.57 57.1735 187.979C57.3542 187.552 57.7119 187.237 58.1544 187.112L64.0438 185.437L73.5804 179.027L73.6873 179.218C73.7279 179.288 74.6645 180.97 74.978 182.105C75.096 182.538 75.0665 182.898 74.8858 183.174C74.7604 183.369 74.5871 183.479 74.4433 183.541C74.6166 183.721 75.1587 184.085 76.8219 184.349C79.2558 184.735 79.7647 182.223 79.7869 182.116L79.8016 182.032L79.8754 181.984C81.0333 181.242 81.7451 180.904 81.9921 180.974C82.147 181.018 82.4015 181.095 83.0911 187.935C83.1612 188.148 83.6443 189.723 83.3161 191.226C82.9583 192.864 75.7783 192.298 74.34 192.17C74.2995 192.173 68.9227 192.555 65.2386 192.555V192.563H65.2423Z" fill="#2F2E41"/>
<path d="M84.2202 75.6945H43.4482L58.1034 27.6519H74.3591L84.2202 75.6945Z" fill="#DDDEDF"/>
<path d="M42.3378 102.652C41.851 105.595 39.8818 107.707 37.9383 107.365C35.9948 107.024 34.8111 104.364 35.2979 101.422C35.4749 100.243 35.9432 99.1298 36.6623 98.1711L38.8824 85.7297L44.9266 86.9897L42.0944 99.1188C42.4669 100.265 42.5517 101.477 42.3415 102.652L42.3378 102.652Z" fill="#F6A6A9"/>
<path d="M60.6695 27.6592C60.6695 27.6592 50.5429 27.3947 49.4771 30.0468C48.4114 32.7026 35.8877 95.8753 35.8877 95.8753H44.1483L60.6695 27.6592Z" fill="#DDDEDF"/>
<path d="M62.8197 22.8545C67.7505 22.8545 71.7478 18.873 71.7478 13.9616C71.7478 9.05012 67.7505 5.0686 62.8197 5.0686C57.8888 5.0686 53.8916 9.05012 53.8916 13.9616C53.8916 18.873 57.8888 22.8545 62.8197 22.8545Z" fill="#F6A6A9"/>
<path d="M64.2209 3.05568C64.2209 3.05568 52.7593 20.0372 54.688 30.6309L48.0205 26.4691C48.0205 26.4691 52.715 5.02454 59.7107 3.36056L64.2209 3.052L64.2209 3.05568Z" fill="#2F2E41"/>
<path d="M75.7458 75.6943H48.9911L34.3506 135.543C34.0814 138.07 35.6893 140.428 38.1564 141.086C46.1884 143.227 65.4606 146.265 94.6346 137.809C97.441 136.997 99.0341 134.048 98.1527 131.271L75.7458 75.698V75.6943Z" fill="#2F2E41"/>
<path d="M39.6608 36.1738L39.4764 35.9902L39.292 36.1738C30.3196 27.2441 15.7788 27.2551 6.81381 36.1922C-2.15116 45.1329 -2.33186 59.7966 6.64048 68.7263L39.4985 101.422L72.3344 68.6859C81.2993 59.7452 81.1113 45.0815 72.1426 36.1518C63.1703 27.2221 48.6294 27.2331 39.6644 36.1702C39.6644 36.1702 39.6608 36.1738 39.6608 36.1738Z" fill="#6C63FF"/>
<path d="M63.9258 32.1479L71.3382 28.3608C74.7273 27.1119 78.5072 27.5307 81.5386 29.4958C90.758 35.4686 108.931 48.6372 101.121 55.1463C90.8281 63.727 76.9141 48.5087 76.9141 48.5087L63.9258 32.1479Z" fill="#DDDEDF"/>
<path d="M63.764 38.6202C61.1863 37.1068 59.9214 34.5135 60.9429 32.8275C61.9644 31.1451 64.8814 31.0092 67.4628 32.5226C68.5028 33.114 69.3768 33.9515 70.0111 34.9653L80.8531 41.5258L77.4899 46.683L67.1567 39.6671C65.9472 39.5973 64.7818 39.2373 63.7603 38.6165H63.764L63.764 38.6202Z" fill="#F6A6A9"/>
<path d="M71.1318 44.5672L74.2148 37.2317L89.2793 42.1979L82.5418 53.3683L71.1318 44.5672Z" fill="#DDDEDF"/>
</g>
<defs>
<clipPath id="clip0_408_342">
<rect width="112" height="193" fill="white"/>
</clipPath>
</defs>
</svg>
