<svg width="225" height="191" viewBox="0 0 225 191" fill="none" xmlns="http://www.w3.org/2000/svg">
<g clip-path="url(#clip0_405_225)">
<path d="M183.245 92.1835C183.245 94.8674 183.133 97.524 182.908 100.154C182.732 102.206 182.491 104.24 182.185 106.256C181.861 108.39 181.463 110.499 180.992 112.581V112.584C180.685 113.955 180.347 115.314 179.978 116.663C178.91 120.582 177.581 124.426 176.001 128.166C175.657 128.98 175.303 129.788 174.937 130.591C173.552 133.631 172.002 136.591 170.294 139.459C165.502 147.512 159.52 154.785 152.554 161.028C151.8 161.703 151.035 162.366 150.261 163.018C133.813 176.842 113.054 184.4 91.6224 184.367C41.0201 184.367 0 143.096 0 92.1835C0 41.2712 41.0201 -0.000129964 91.6224 -0.000129964C112.316 -0.0329587 132.406 7.01444 148.593 19.985C149.352 20.5899 150.101 21.2085 150.84 21.8407C154.45 24.9206 157.819 28.2753 160.917 31.8752H160.919C175.348 48.61 183.277 70.0292 183.245 92.1835Z" fill="#F2F2F2"/>
<path d="M27.047 108.107C18.3188 102.881 11.7312 93.1128 12.5865 82.9299C20.5661 90.614 30.9899 95.2105 42.0137 95.9064C46.2661 96.1593 51.0219 95.995 54.1522 98.902C56.0999 100.711 57.0066 103.434 57.1553 106.096C57.3039 108.759 56.7738 111.407 56.2464 114.021L56.4279 114.661C46.271 114.7 35.7751 113.334 27.047 108.107Z" fill="#E6E6E6"/>
<path d="M12.7988 82.919C16.296 90.6111 22.1131 96.999 29.4241 101.175C30.9958 102.06 32.6667 102.821 34.4423 103.173C36.1757 103.504 37.9655 103.361 39.6255 102.76C41.1846 102.231 42.7184 101.508 44.3781 101.37C46.1275 101.224 47.7471 101.903 49.0196 103.092C50.5765 104.548 51.5208 106.479 52.379 108.4C53.332 110.533 54.2882 112.763 56.1152 114.297C56.3366 114.483 56.037 114.818 55.816 114.632C52.6373 111.964 52.1184 107.495 49.5775 104.352C48.3919 102.885 46.7598 101.769 44.8209 101.799C43.1255 101.825 41.5431 102.569 39.9692 103.118C38.3165 103.695 36.6609 103.966 34.9161 103.712C33.1313 103.452 31.4273 102.756 29.84 101.915C26.2548 99.9816 22.994 97.4927 20.1772 94.5399C16.9438 91.1879 14.3041 87.304 12.3724 83.0563C12.253 82.7934 12.6802 82.6578 12.7988 82.919Z" fill="white"/>
<path d="M26.9922 99.9701C26.1293 101.109 24.892 101.902 23.5014 102.208C22.1107 102.514 20.6573 102.313 19.4007 101.64C19.1469 101.503 19.3465 101.1 19.6007 101.237C20.7697 101.866 22.1236 102.053 23.418 101.766C24.7123 101.478 25.8619 100.735 26.6592 99.6691C26.8328 99.4378 27.1647 99.7402 26.9922 99.9701Z" fill="white"/>
<path d="M38.8703 103.133C38.5071 100.228 37.0691 97.5681 34.843 95.6827C34.6223 95.4961 34.9218 95.1613 35.1422 95.3477C37.4551 97.314 38.946 100.086 39.3173 103.109C39.3525 103.397 38.9053 103.42 38.8703 103.133Z" fill="white"/>
<path d="M17.4983 90.9765C17.9235 90.6058 18.2505 90.1347 18.4499 89.6054C18.6494 89.0761 18.7151 88.5053 18.6411 87.9442C18.6023 87.6565 19.0495 87.6344 19.0881 87.9202C19.167 88.5405 19.0937 89.1708 18.8746 89.7561C18.6555 90.3414 18.2973 90.8638 17.8313 91.2776C17.7906 91.3203 17.7353 91.3458 17.6766 91.349C17.6178 91.3522 17.5601 91.3327 17.5152 91.2946C17.4713 91.2545 17.4449 91.1986 17.4417 91.1391C17.4386 91.0795 17.4589 91.0211 17.4983 90.9765Z" fill="white"/>
<path d="M40.8377 63.2021C40.867 63.3811 40.8963 63.56 40.929 63.7406C41.3354 66.1438 41.9352 68.5098 42.7225 70.8153C42.7806 70.9945 42.8421 71.1753 42.9051 71.3525C44.8607 76.8866 47.8205 82.0073 51.634 86.4543C53.1531 88.2224 54.8037 89.8718 56.5715 91.388C59.013 93.4818 61.8259 95.5565 63.3913 98.26C63.5577 98.5402 63.7068 98.8305 63.8376 99.1293L57.1891 114.389C57.1567 114.416 57.1276 114.444 57.0952 114.472L56.8574 115.093C56.7608 115.021 56.6621 114.945 56.5655 114.873C56.5093 114.832 56.4546 114.787 56.3984 114.745C56.3614 114.717 56.3244 114.688 56.2894 114.664C56.277 114.654 56.2648 114.645 56.2559 114.637C56.2208 114.613 56.1908 114.587 56.1593 114.565C55.6066 114.139 55.056 113.708 54.5074 113.272C54.5039 113.271 54.5039 113.271 54.5019 113.266C50.3302 109.935 46.3981 106.226 43.1507 102.033C43.053 101.907 42.9518 101.78 42.8572 101.647C41.4038 99.7487 40.1071 97.7344 38.9799 95.624C38.3663 94.4664 37.8114 93.2783 37.3173 92.0642C36.0466 88.9248 35.2746 85.6038 35.0295 82.223C34.5421 75.4834 36.2024 68.6619 40.5051 63.5867C40.6153 63.4569 40.724 63.3304 40.8377 63.2021Z" fill="#E6E6E6"/>
<path d="M41.0158 63.3214C39.2051 71.5815 40.0272 80.2056 43.3654 87.9689C44.0907 89.6277 44.9699 91.2469 46.1766 92.6041C47.3629 93.9179 48.8773 94.8881 50.5623 95.4139C52.1237 95.936 53.7809 96.288 55.1889 97.1828C56.6731 98.126 57.5599 99.6493 57.8641 101.37C58.2364 103.475 57.8347 105.589 57.3705 107.642C56.855 109.923 56.2838 112.283 56.8247 114.614C56.8903 114.897 56.4508 114.983 56.3853 114.7C55.4442 110.644 57.7042 106.762 57.556 102.713C57.4869 100.824 56.8516 98.9445 55.2859 97.7935C53.9168 96.787 52.2082 96.4225 50.6227 95.9076C48.958 95.3671 47.4739 94.5805 46.2326 93.321C44.9629 92.0325 44.019 90.4445 43.2548 88.8116C41.5493 85.0959 40.4351 81.1335 39.953 77.0695C39.3772 72.4344 39.5937 67.7343 40.5931 63.1727C40.6551 62.8904 41.0774 63.0409 41.0158 63.3214Z" fill="white"/>
<path d="M42.1437 85.5328C40.7731 85.9195 39.3105 85.8034 38.0171 85.2053C36.7237 84.6072 35.6837 83.566 35.0829 82.2676C34.9623 82.0045 35.363 81.8034 35.4838 82.0669C36.0411 83.277 37.0099 84.2468 38.2154 84.8013C39.421 85.3558 40.7838 85.4585 42.058 85.0908C42.3349 85.0112 42.4191 85.4537 42.1437 85.5328Z" fill="white"/>
<path d="M49.7356 95.2543C51.1839 92.7149 51.6276 89.7197 50.9784 86.8658C50.9139 86.5831 51.3533 86.4972 51.4178 86.7796C52.0879 89.7507 51.6198 92.8667 50.1069 95.5059C49.9625 95.7573 49.592 95.5043 49.7356 95.2543Z" fill="white"/>
<path d="M39.9464 72.6019C40.5077 72.5634 41.0507 72.3853 41.5267 72.0836C42.0027 71.7818 42.3967 71.3658 42.6734 70.873C42.8146 70.6198 43.1849 70.873 43.0447 71.1246C42.7365 71.6677 42.3008 72.1265 41.7756 72.4611C41.2505 72.7957 40.6519 72.9958 40.0321 73.044C39.9741 73.0534 39.9146 73.0403 39.8659 73.0072C39.8171 72.9742 39.7827 72.9237 39.7696 72.866C39.7585 72.8075 39.7709 72.7468 39.804 72.6974C39.8371 72.6479 39.8883 72.6136 39.9464 72.6019Z" fill="white"/>
<path d="M63.4681 21.3655L74.6823 153.445L52.2539 155.142V23.046C54.9265 21.2667 58.7629 20.9883 63.4681 21.3655Z" fill="#CCCCCC"/>
<path d="M118.824 21.3655L107.609 153.445L130.038 155.142V23.046C127.365 21.2667 123.529 20.9883 118.824 21.3655Z" fill="#CCCCCC"/>
<path d="M126.679 160.601H55.3732C54.2298 160.6 53.1336 160.142 52.3251 159.329C51.5166 158.515 51.0618 157.412 51.0605 156.262V24.9843C51.0618 23.8339 51.5166 22.731 52.3251 21.9176C53.1336 21.1041 54.2298 20.6466 55.3732 20.6453H126.679C127.822 20.6466 128.918 21.1041 129.727 21.9176C130.535 22.731 130.99 23.8339 130.992 24.9843V156.262C130.99 157.412 130.535 158.515 129.727 159.329C128.918 160.142 127.822 160.6 126.679 160.601ZM55.3732 22.0856C54.6093 22.0865 53.877 22.3922 53.3369 22.9356C52.7968 23.479 52.493 24.2158 52.4921 24.9843V156.262C52.493 157.03 52.7968 157.767 53.3369 158.311C53.877 158.854 54.6093 159.16 55.3732 159.161H126.679C127.443 159.16 128.175 158.854 128.715 158.311C129.255 157.767 129.559 157.03 129.56 156.262V24.9843C129.559 24.2158 129.255 23.479 128.715 22.9356C128.175 22.3922 127.443 22.0865 126.679 22.0856L55.3732 22.0856Z" fill="#CCCCCC"/>
<path d="M130.275 42.491H51.7754V43.9313H130.275V42.491Z" fill="#CCCCCC"/>
<path d="M130.275 66.4971H51.7754V67.9374H130.275V66.4971Z" fill="#CCCCCC"/>
<path d="M77.25 21.3655H75.8184V86.9023H77.25V21.3655Z" fill="#CCCCCC"/>
<path d="M106.234 21.3655H104.803V86.9023H106.234V21.3655Z" fill="#CCCCCC"/>
<path d="M139.224 164.562H45.2156C43.5071 164.562 41.8685 163.879 40.6603 162.664C39.4522 161.448 38.7734 159.8 38.7734 158.081C38.7734 156.361 39.4522 154.713 40.6603 153.497C41.8685 152.282 43.5071 151.599 45.2156 151.599H139.224C140.933 151.599 142.571 152.282 143.779 153.497C144.987 154.713 145.666 156.361 145.666 158.081C145.666 159.8 144.987 161.448 143.779 162.664C142.571 163.879 140.933 164.562 139.224 164.562Z" fill="#CCCCCC"/>
<path d="M130.276 83.5415H52.2539V88.3427H130.276V83.5415Z" fill="#CCCCCC"/>
<path d="M77.473 98.8216L77.374 98.7735C72.0552 96.1884 65.0902 96.1907 54.7897 98.782L54.6797 98.8096L54.6468 98.7004C53.5571 95.1057 52.3227 91.0342 54.6416 89.0311C54.6741 83.1531 59.7988 78.3801 66.0934 78.3801C72.3867 78.3801 77.5107 83.1506 77.545 89.0271C80.9946 91.6807 79.3506 95.602 77.5287 98.7262L77.473 98.8216Z" fill="#2F2E41"/>
<path d="M110.163 86.2349C110.067 86.7112 109.869 87.1607 109.583 87.5517C109.296 87.9427 108.927 88.2657 108.503 88.4979C108.079 88.7301 107.609 88.866 107.127 88.8958C106.645 88.9257 106.163 88.8489 105.714 88.6708L86.9172 107.675L85.2402 101.774L103.908 84.1261C104.256 83.3865 104.861 82.8008 105.609 82.48C106.357 82.1593 107.196 82.1257 107.966 82.3856C108.737 82.6455 109.387 83.181 109.792 83.8904C110.196 84.5999 110.328 85.434 110.163 86.2349Z" fill="#FFB6B6"/>
<path d="M63.709 104.531C63.709 104.531 62.0036 108.419 66.2115 110.817C70.4194 113.214 85.126 109.902 87.5123 109.439C89.8986 108.976 98.8112 95.5569 98.8112 95.5569L97.5509 88.9756L85.7307 99.2994L63.709 104.531Z" fill="#6C63FF"/>
<path d="M60.6052 126.032L60.8438 130.594C60.8438 130.594 60.1396 134.634 60.7188 135.506C61.2936 136.373 76.9795 136.483 76.9795 136.483C76.9795 136.483 78.0159 130.862 78.9086 125.941L60.6052 126.032Z" fill="#FFB6B6"/>
<path d="M105.702 186.341L108.982 185.674L108.043 172.348L103.203 173.331L105.702 186.341Z" fill="#FFB6B6"/>
<path d="M110.4 168.998L113.448 167.619L109.494 154.868L104.994 156.903L110.4 168.998Z" fill="#FFB6B6"/>
<path d="M113.057 161.813L107.317 165.083L93.16 142.196C83.2219 148.932 73.5038 152.158 63.707 153.879C60.3948 154.473 57.0178 154.172 56.3819 150.78C56.3521 150.622 56.3284 150.462 56.3108 150.302C55.9196 146.597 60.5002 141.848 61.0824 137.315L73.6186 136.558L75.1645 138.552L89.6621 129.584C92.5776 127.781 96.4123 128.756 98.227 131.763C98.3229 131.922 98.4118 132.085 98.4939 132.251L113.057 161.813Z" fill="#2F2E41"/>
<path d="M109.543 177.21L102.975 177.825L91.0656 153.319C79.2559 155.362 68.1146 156.017 58.4779 153.545C55.2151 152.719 53.2207 149.33 54.0232 145.974C54.0607 145.817 54.1041 145.662 54.1533 145.508C55.3067 141.968 58.3257 139.463 60.7043 135.569L78.0784 135.834L76.1378 142.571L93.0155 140.374C96.4097 139.932 99.5095 142.404 99.9391 145.895C99.9618 146.079 99.9766 146.264 99.9836 146.45L109.543 177.21Z" fill="#2F2E41"/>
<path d="M67.3889 95.3375C71.2851 95.3375 74.4437 92.1596 74.4437 88.2394C74.4437 84.3193 71.2851 81.1414 67.3889 81.1414C63.4926 81.1414 60.334 84.3193 60.334 88.2394C60.334 92.1596 63.4926 95.3375 67.3889 95.3375Z" fill="#FFB6B6"/>
<path d="M63.2518 97.8999L69.7205 98.6656C69.9932 98.6979 70.2492 98.815 70.4527 99.0006C70.6562 99.1862 70.7971 99.431 70.8558 99.701L71.8845 104.437L78.2973 112.035C78.2973 112.035 80.6 116.379 79.7365 121.303C78.873 126.226 78.4935 129.884 78.4935 129.884C78.4935 129.884 61.2913 136.374 60.7157 135.505C60.14 134.636 59.9531 130.69 59.9531 130.69L57.6504 104.914C57.6504 104.914 60.241 100.57 61.6802 100.57C62.6091 100.539 62.4899 98.4354 63.2518 97.8999Z" fill="#6C63FF"/>
<path d="M78.6698 131.469C79.5769 131.469 80.3123 130.581 80.3123 129.486C80.3123 128.391 79.5769 127.503 78.6698 127.503C77.7627 127.503 77.0273 128.391 77.0273 129.486C77.0273 130.581 77.7627 131.469 78.6698 131.469Z" fill="#6C63FF"/>
<path d="M104.076 182.91L109.076 180.389L110.018 182.6L116.34 183.886C116.652 183.95 116.936 184.112 117.15 184.349C117.364 184.586 117.498 184.886 117.53 185.205C117.563 185.524 117.493 185.845 117.332 186.121C117.171 186.398 116.926 186.615 116.633 186.741L110.524 189.375L108.539 187.642L109.06 190.007L106.757 191L104.076 182.91Z" fill="#2F2E41"/>
<path d="M108.969 167.937L113.923 165.328L114.904 167.523L121.248 168.697C121.561 168.754 121.848 168.912 122.066 169.145C122.284 169.379 122.423 169.676 122.461 169.994C122.499 170.313 122.435 170.635 122.279 170.914C122.122 171.193 121.881 171.414 121.59 171.546L115.529 174.288L113.514 172.59L114.076 174.945L111.791 175.979L108.969 167.937Z" fill="#2F2E41"/>
<path d="M63.3581 86.0128C61.4943 86.0158 59.6752 85.4384 58.1505 84.3598L58.0996 84.3239V84.2614C58.1017 82.4475 58.8188 80.7085 60.0936 79.4259C61.3684 78.1432 63.0968 77.4217 64.8997 77.4197H67.7629C69.5658 77.4217 71.2942 78.1432 72.569 79.4259C73.8439 80.7085 74.561 82.4475 74.563 84.2614C74.5611 84.6766 74.3982 85.0746 74.1089 85.3707C73.8197 85.6668 73.427 85.8376 73.0144 85.8467L63.519 86.0114C63.4654 86.0123 63.4116 86.0128 63.3581 86.0128Z" fill="#2F2E41"/>
<path d="M75.0394 82.9475C75.9524 82.4172 76.1049 80.9634 75.3802 79.7004C74.6554 78.4374 73.3278 77.8434 72.4148 78.3737C71.5018 78.9041 71.3493 80.3579 72.074 81.6209C72.7988 82.8839 74.1264 83.4779 75.0394 82.9475Z" fill="#2F2E41"/>
<path d="M60.7604 81.5384C61.7854 80.5072 62.012 79.0632 61.2665 78.3132C60.5211 77.5632 59.0859 77.7912 58.061 78.8225C57.036 79.8537 56.8094 81.2977 57.5548 82.0477C58.3002 82.7977 59.7354 82.5697 60.7604 81.5384Z" fill="#2F2E41"/>
<path d="M123.198 146.438H116.156C115.997 146.437 115.84 146.472 115.696 146.539C115.552 146.606 115.424 146.704 115.321 146.826C115.062 146.778 114.794 146.792 114.541 146.868C114.288 146.945 114.057 147.08 113.866 147.263C113.675 147.447 113.53 147.674 113.443 147.924C113.356 148.175 113.329 148.443 113.365 148.706C113.401 148.97 113.498 149.221 113.649 149.439C113.8 149.657 114 149.836 114.233 149.961C114.466 150.086 114.725 150.153 114.99 150.158C115.254 150.163 115.515 150.105 115.752 149.988L116.336 151.898C116.405 152.124 116.545 152.322 116.734 152.463C116.924 152.603 117.153 152.679 117.388 152.679H121.966C122.202 152.679 122.431 152.603 122.62 152.463C122.809 152.322 122.949 152.124 123.018 151.898L124.25 147.87C124.3 147.705 124.311 147.529 124.283 147.359C124.254 147.188 124.185 147.026 124.083 146.887C123.981 146.748 123.847 146.634 123.694 146.556C123.54 146.478 123.37 146.438 123.198 146.438ZM115.024 149.678C114.708 149.678 114.404 149.552 114.181 149.327C113.957 149.102 113.831 148.796 113.831 148.478C113.831 148.16 113.957 147.854 114.181 147.629C114.404 147.404 114.708 147.278 115.024 147.278C115.046 147.278 115.066 147.283 115.088 147.284C115.04 147.477 115.046 147.68 115.105 147.87L115.608 149.518C115.431 149.622 115.23 149.677 115.024 149.678Z" fill="#3F3D56"/>
<path d="M91.7552 141.226C91.2743 141.271 90.7895 141.209 90.335 141.045C89.8805 140.881 89.4672 140.619 89.1244 140.276C88.7816 139.934 88.5175 139.521 88.3508 139.065C88.184 138.609 88.1187 138.121 88.1594 137.637L64.6719 124.973L69.8091 121.664L91.9686 134.593C92.7724 134.716 93.5037 135.131 94.0237 135.76C94.5437 136.389 94.8164 137.188 94.7901 138.005C94.7638 138.823 94.4403 139.602 93.8809 140.196C93.3216 140.79 92.5652 141.156 91.7552 141.226Z" fill="#FFB6B6"/>
<path d="M61.0068 101.701C61.0068 101.701 56.8154 101.173 55.7397 105.917C54.6639 110.661 62.0377 123.885 63.1628 126.052C64.2879 128.219 79.6221 132.959 79.6221 132.959L85.5267 129.856L72.3058 121.426L61.0068 101.701Z" fill="#6C63FF"/>
<path d="M90.5484 82.1011H91.98C92.6761 82.1011 93.3437 82.3793 93.8359 82.8745C94.3281 83.3697 94.6046 84.0414 94.6046 84.7418H87.9238C87.9238 84.0414 88.2003 83.3697 88.6926 82.8745C89.1848 82.3793 89.8523 82.1011 90.5484 82.1011Z" fill="#CCCCCC"/>
<path d="M45.1535 32.8321C52.9865 32.8321 59.3364 26.4434 59.3364 18.5624C59.3364 10.6815 52.9865 4.29272 45.1535 4.29272C37.3206 4.29272 30.9707 10.6815 30.9707 18.5624C30.9707 26.4434 37.3206 32.8321 45.1535 32.8321Z" fill="#FF6584"/>
<path d="M88.5776 17.8189C84.8242 13.8573 80.4649 10.2433 75.3044 8.33348C73.8669 7.79924 72.3764 7.42239 70.8587 7.20944C70.8464 7.20776 70.8349 7.21024 70.8228 7.20925C70.7981 7.20285 70.773 7.1979 70.7478 7.19444C68.6251 6.92236 66.4705 7.05324 64.3957 7.58028C63.3811 7.83644 62.3913 8.18337 61.4381 8.6169C60.4816 9.08642 59.5547 9.6149 58.6629 10.1993C56.7752 11.3362 54.6968 12.1163 52.5303 12.5012C51.4428 12.6982 50.3413 12.8069 49.2365 12.8264C48.2779 12.8458 47.3738 12.8793 46.4656 13.2277C45.4954 13.5948 44.6239 14.1849 43.9206 14.9511C43.2174 15.7172 42.7018 16.6381 42.4151 17.6403C42.393 17.7295 42.3997 17.8235 42.4341 17.9087C42.4686 17.9939 42.5291 18.0659 42.6068 18.1143C42.8525 18.2913 43.092 18.4922 43.3502 18.6499C43.5798 18.7557 43.8251 18.823 44.0763 18.8492C44.4867 18.9363 44.8976 19.0209 45.309 19.1029C46.8248 19.4051 48.3469 19.6725 49.8752 19.9053C52.9678 20.3764 56.0771 20.7082 59.2031 20.9007C65.4654 21.2824 71.7492 21.0924 77.9774 20.333C81.4777 19.9065 84.9542 19.3015 88.3935 18.5204C88.4632 18.4999 88.5264 18.4617 88.577 18.4094C88.6276 18.3571 88.664 18.2925 88.6825 18.2219C88.701 18.1514 88.7011 18.0772 88.6827 18.0066C88.6643 17.9359 88.6281 17.8713 88.5776 17.8189Z" fill="#E6E6E6"/>
<path d="M45.8258 27.3596C44.3884 26.8254 42.8979 26.4485 41.3801 26.2356C41.3679 26.2339 41.3564 26.2364 41.3442 26.2354C41.3195 26.229 41.2945 26.224 41.2692 26.2206C39.1465 25.9485 36.9919 26.0794 34.9172 26.6064C33.9026 26.8626 32.9128 27.2095 31.9596 27.643C31.0031 28.1125 30.0762 28.641 29.1844 29.2254C27.2967 30.3623 25.2183 31.1424 23.0518 31.5273C21.9643 31.7243 20.8628 31.833 19.758 31.8525C18.7994 31.8719 17.8953 31.9054 16.9871 32.2538C16.0169 32.6209 15.1454 33.2111 14.4421 33.9772C13.7389 34.7433 13.2233 35.6642 12.9366 36.6664C12.9145 36.7556 12.9212 36.8497 12.9556 36.9348C12.9901 37.02 13.0506 37.092 13.1283 37.1404C13.374 37.3174 13.6135 37.5183 13.8717 37.676C14.1013 37.7818 14.3466 37.8491 14.5978 37.8753C15.0082 37.9624 15.4191 38.047 15.8305 38.129C17.3463 38.4312 18.8684 38.6986 20.3967 38.9314C23.4893 39.4025 26.5986 39.7343 29.7246 39.9268C35.9869 40.3085 42.2707 40.1185 48.4989 39.3591C51.9992 38.9326 55.4757 38.3276 58.915 37.5465C58.9847 37.526 59.0479 37.4878 59.0985 37.4355C59.1491 37.3832 59.1854 37.3186 59.204 37.248C59.2225 37.1775 59.2226 37.1033 59.2042 37.0327C59.1858 36.962 59.1496 36.8974 59.0991 36.845C55.3456 32.8834 50.9864 29.2694 45.8258 27.3596Z" fill="#E6E6E6"/>
<path d="M148.105 133.738L137.198 119.322L128.592 124.218L146.828 146.006L148.105 133.738Z" fill="#3F3D56"/>
<path d="M173.229 110.303C173.471 116.345 174.401 122.338 176.001 128.166C175.657 128.98 175.303 129.788 174.937 130.591C173.552 133.631 172.002 136.591 170.294 139.459C165.502 147.512 159.52 154.785 152.554 161.028C151.8 161.703 151.036 162.366 150.261 163.018C145.844 156.892 143.461 150.132 142.518 143.175C142.399 142.292 142.301 141.399 142.227 140.51V140.506C142.046 138.347 141.988 136.18 142.053 134.014C142.055 133.841 142.06 133.666 142.067 133.491C142.151 131.177 142.358 128.858 142.671 126.56V126.558C142.707 126.294 142.743 126.03 142.783 125.766C142.898 124.974 143.027 124.181 143.167 123.394C143.987 118.853 145.13 114.377 146.589 110.001V109.999C146.629 109.871 146.67 109.746 146.715 109.622C146.873 109.146 147.033 108.676 147.197 108.205C147.207 108.168 147.22 108.132 147.235 108.097C147.448 107.483 147.665 106.873 147.887 106.268C147.946 106.1 148.009 105.932 148.073 105.764C148.323 105.089 148.579 104.419 148.839 103.759C148.92 103.548 149.003 103.337 149.087 103.128C149.151 102.967 149.213 102.806 149.28 102.648V102.645C149.66 101.702 150.044 100.777 150.433 99.8703C151.523 97.3209 152.645 94.9227 153.737 92.7117L153.74 92.7093C158.275 83.5557 162.398 77.6118 162.398 77.6118L177.881 82.6531C176.034 85.9492 174.605 90.8104 173.823 96.5455C173.22 101.104 173.021 105.707 173.229 110.301L173.229 110.303Z" fill="#3F3D56"/>
<path d="M147.495 108.837C147.404 108.623 147.301 108.414 147.196 108.205C146.652 107.145 145.952 106.174 145.118 105.325C144.994 105.197 144.865 105.07 144.732 104.95C143.295 103.618 141.547 102.672 139.65 102.2C137.753 101.727 135.769 101.744 133.88 102.247L133.871 102.252L133.799 102.271L133.816 102.353C133.887 102.733 133.991 103.106 134.126 103.469C134.162 103.567 134.202 103.661 134.243 103.755C134.26 103.798 134.281 103.836 134.3 103.879C134.3 103.879 134.298 103.882 134.303 103.882C134.303 103.884 134.305 103.887 134.305 103.889C134.35 103.978 134.393 104.069 134.441 104.156C134.343 104.062 134.25 103.966 134.159 103.867C134.071 103.776 133.99 103.68 133.909 103.584C133.631 103.258 133.379 102.909 133.157 102.542L133.119 102.478L133.052 102.504C132.152 102.818 131.293 103.241 130.494 103.764L130.409 103.822C129.799 104.225 129.112 104.494 128.392 104.612C127.672 104.73 126.936 104.695 126.231 104.508C125.119 104.22 123.959 104.167 122.826 104.354C121.693 104.54 120.61 104.961 119.648 105.591C119.01 106.009 118.433 106.515 117.935 107.094C117.892 107.144 117.849 107.197 117.806 107.248C117.715 107.358 117.629 107.471 117.546 107.586C116.649 108.792 116.098 110.223 115.954 111.722L115.949 111.778L115.995 111.809C116.802 112.365 117.715 112.748 118.677 112.932C118.073 113.017 117.461 113.032 116.854 112.978H116.851C116.576 112.955 116.302 112.916 116.031 112.863L115.98 112.853H115.978L115.916 112.841L115.926 112.956C115.997 114.423 116.456 115.844 117.255 117.073L117.278 117.107C117.287 117.119 117.295 117.132 117.302 117.145C117.641 117.666 117.922 118.222 118.142 118.804C118.7 120.25 118.823 121.828 118.495 123.344C118.125 124.964 118.248 126.66 118.849 128.209C119.45 129.758 120.501 131.089 121.864 132.029C123.062 132.858 124.458 133.351 125.909 133.457C126.107 133.474 126.307 133.484 126.507 133.484C127.655 133.487 128.79 133.249 129.841 132.785L129.879 132.771L129.888 132.728C130.09 132.072 130.374 131.444 130.733 130.86C130.616 131.32 130.556 131.794 130.557 132.269V132.428L130.693 132.348C130.809 132.279 130.929 132.204 131.036 132.135C131.681 131.711 132.264 131.201 132.771 130.618C132.969 130.387 133.169 130.164 133.379 129.941L133.382 129.938C133.79 129.501 134.221 129.074 134.67 128.666C135.624 127.803 136.646 127.019 137.724 126.32C138.802 125.624 139.929 125.008 141.095 124.477H141.098C141.229 124.414 141.363 124.354 141.494 124.297C142.075 124.042 142.634 123.74 143.167 123.394C143.186 123.382 143.202 123.373 143.219 123.361C145.526 121.841 147.221 119.547 148.004 116.888C148.787 114.228 148.607 111.375 147.495 108.837Z" fill="#6C63FF"/>
<path opacity="0.15" d="M118.89 126.752C118.824 127.044 118.775 127.339 118.742 127.636C118.298 126.224 118.233 124.718 118.555 123.273C118.605 123.052 118.642 122.828 118.671 122.603C119.112 123.941 119.188 125.374 118.89 126.752Z" fill="black"/>
<path opacity="0.15" d="M119.069 116.339C118.362 116.437 117.645 116.441 116.938 116.349C116.752 115.997 116.592 115.633 116.459 115.258C117.247 115.793 118.135 116.161 119.069 116.339Z" fill="black"/>
<path opacity="0.15" d="M116.882 112.901C116.621 113.572 116.448 114.274 116.367 114.99C116.149 114.308 116.02 113.601 115.984 112.885L115.979 112.77L116.091 112.792C116.353 112.841 116.617 112.878 116.882 112.901Z" fill="black"/>
<path opacity="0.15" d="M119.709 105.52C120.671 104.889 121.753 104.467 122.885 104.281C124.018 104.094 125.177 104.147 126.289 104.436C126.994 104.623 127.731 104.659 128.451 104.541C129.171 104.423 129.859 104.154 130.469 103.75L130.555 103.693C131.353 103.169 132.211 102.744 133.111 102.43L133.18 102.406L133.218 102.468C133.573 103.06 134.005 103.603 134.5 104.083C134.199 103.519 133.988 102.91 133.876 102.28L133.859 102.197L133.941 102.175C135.712 101.703 137.57 101.66 139.361 102.048C141.153 102.436 142.828 103.244 144.249 104.408C145.671 105.571 146.799 107.056 147.542 108.741C148.285 110.427 148.621 112.265 148.523 114.106C148.147 112.605 147.479 111.194 146.558 109.955C145.636 108.716 144.479 107.673 143.154 106.886C141.828 106.1 140.361 105.587 138.837 105.375C137.313 105.164 135.762 105.259 134.275 105.654L134.194 105.676L134.21 105.759C134.323 106.389 134.534 106.998 134.835 107.562C134.339 107.082 133.908 106.54 133.552 105.948L133.514 105.885L133.446 105.909C132.545 106.224 131.687 106.648 130.889 107.172L130.803 107.229C130.193 107.633 129.506 107.902 128.786 108.02C128.065 108.139 127.328 108.103 126.623 107.915C124.776 107.433 122.82 107.61 121.088 108.417C119.356 109.223 117.956 110.609 117.127 112.338C116.757 112.16 116.399 111.959 116.055 111.736L116.008 111.706L116.013 111.651C116.132 110.415 116.526 109.222 117.166 108.161C117.806 107.099 118.675 106.197 119.709 105.52Z" fill="black"/>
<path d="M208.412 44.181L208.185 44.0298L208.02 44.2458C206.746 45.8599 205.733 47.6656 205.016 49.5968C205.115 47.372 205.502 45.1697 206.167 43.0455L206.238 42.8223L206.033 42.7046C203.363 41.1837 200.519 39.997 197.563 39.1709L197.241 39.0845C194.975 38.459 192.866 37.3602 191.051 35.8595C189.236 34.3588 187.755 32.49 186.706 30.3751C184.269 25.5212 180.418 21.5307 175.667 18.9361C170.917 16.3415 165.493 15.2662 160.119 15.8538H160.117C160.059 15.8586 160 15.8658 159.943 15.873C159.845 15.8826 159.749 15.8946 159.654 15.9066C159.458 15.933 159.267 15.9594 159.076 15.9882C158.914 16.0122 158.75 16.0386 158.587 16.0674C158.501 16.0794 158.418 16.0938 158.334 16.1106C158.251 16.125 158.165 16.1394 158.081 16.1562H158.079C156.477 16.4611 154.907 16.9152 153.388 17.5126H153.386V17.515L153.002 17.6662C152.606 17.8295 152.213 18.0023 151.823 18.1847C151.735 18.2256 151.649 18.2688 151.561 18.3096C151.537 18.3216 151.51 18.3336 151.487 18.348C151.236 18.468 150.988 18.5928 150.742 18.7249C150.706 18.7417 150.671 18.7609 150.635 18.7801L150.406 18.9025C149.902 19.1762 149.408 19.4667 148.922 19.774C148.881 19.798 148.843 19.822 148.802 19.8484C148.759 19.8772 148.714 19.906 148.671 19.9348C148.645 19.9492 148.619 19.9684 148.592 19.9852C148.518 20.0308 148.447 20.0788 148.375 20.1292C148.232 20.2229 148.089 20.3189 147.948 20.4173C147.803 20.5157 147.659 20.619 147.516 20.7222L147.373 20.8254L147.399 21.0031C147.423 21.1495 147.445 21.2959 147.471 21.44C147.495 21.584 147.519 21.7257 147.545 21.8673C147.585 22.1049 147.631 22.3402 147.676 22.5683C147.707 22.7195 147.736 22.8683 147.769 23.0148C147.8 23.166 147.834 23.3173 147.869 23.4685C147.939 23.7806 148.013 24.0831 148.091 24.3807C148.129 24.5296 148.17 24.6784 148.213 24.8248C148.237 24.9137 148.261 25.0025 148.287 25.0889C148.306 25.1489 148.325 25.2089 148.344 25.269C148.349 25.2882 148.354 25.3098 148.361 25.3314C148.366 25.3517 148.373 25.3717 148.38 25.3914C148.406 25.4802 148.433 25.5666 148.459 25.6507C148.473 25.6963 148.487 25.7419 148.504 25.7851C148.537 25.8883 148.573 25.9939 148.609 26.0948C148.647 26.21 148.688 26.3252 148.728 26.4381C148.738 26.4669 148.747 26.4933 148.757 26.5221C148.764 26.5437 148.771 26.5653 148.781 26.5869C148.79 26.6109 148.8 26.6373 148.81 26.6613C148.85 26.7693 148.891 26.8798 148.934 26.9878C148.948 27.0262 148.962 27.067 148.979 27.1054C149.366 28.0834 149.841 29.0236 150.399 29.9142C149.781 29.3812 149.186 28.8163 148.614 28.2193C147.731 27.2963 146.917 26.3085 146.18 25.2642C146.12 25.1825 146.061 25.0985 146.006 25.0145C145.894 24.8537 145.784 24.6928 145.677 24.5296C145.562 24.3615 145.452 24.1863 145.345 24.0134C145.273 23.8982 145.202 23.7806 145.133 23.6653C145.063 23.5549 144.999 23.4469 144.937 23.3365L144.751 23.0148H144.749V23.0172L144.486 23.2764C144.381 23.3797 144.276 23.4829 144.174 23.5861C140.967 26.8325 138.644 30.8544 137.428 35.2651L137.392 35.3971L137.357 35.534C137.288 35.7788 137.218 36.0165 137.144 36.259V36.2614C137.073 36.5014 136.996 36.7415 136.915 36.9767C136.841 37.2 136.765 37.4209 136.684 37.6417C136.658 37.7161 136.629 37.7906 136.598 37.865C136.548 38.009 136.493 38.1506 136.438 38.2947C136.412 38.3595 136.386 38.4267 136.359 38.4915C136.295 38.65 136.231 38.8084 136.166 38.9645C136.157 38.9885 136.145 39.0149 136.133 39.0389C136.114 39.0869 136.092 39.1349 136.073 39.1805C136.023 39.2957 135.97 39.4134 135.92 39.5286C135.885 39.603 135.851 39.6798 135.818 39.7543C135.803 39.7879 135.787 39.8215 135.772 39.8551C135.684 40.0471 135.593 40.2368 135.498 40.424C135.391 40.6449 135.281 40.8658 135.164 41.0818C135.061 41.2835 134.954 41.4803 134.842 41.6772C134.649 42.0253 134.446 42.3709 134.236 42.707C134.155 42.8367 134.074 42.9663 133.99 43.0959C133.971 43.1271 133.952 43.1583 133.933 43.1872C133.864 43.3 133.792 43.408 133.718 43.5184C133.668 43.5929 133.618 43.6673 133.568 43.7393C133.484 43.8689 133.396 43.9938 133.305 44.1162C133.281 44.1546 133.255 44.1906 133.229 44.2266C133.095 44.4139 132.962 44.5963 132.826 44.7788C132.821 44.7812 132.821 44.7836 132.819 44.786C132.814 44.786 132.814 44.7884 132.811 44.7908C132.752 44.87 132.692 44.9492 132.63 45.026C132.549 45.1388 132.461 45.2493 132.372 45.3573C132.229 45.5398 132.079 45.7246 131.926 45.9046C131.921 45.9094 131.919 45.9142 131.914 45.9167C131.124 46.8512 130.267 47.7273 129.352 48.5381C129.335 48.5525 129.323 48.5669 129.306 48.5789C129.178 48.6918 129.049 48.8046 128.915 48.915C128.86 48.9606 128.805 49.0062 128.75 49.0519C128.66 49.1287 128.567 49.2055 128.476 49.2751C128.465 49.2861 128.453 49.2958 128.44 49.3039C128.359 49.3711 128.28 49.4336 128.199 49.496C128.101 49.5752 128.004 49.6496 127.903 49.724C127.431 50.0841 126.946 50.4242 126.448 50.7443C126.374 50.7947 126.295 50.8451 126.219 50.8931C126.174 50.9219 126.128 50.9507 126.085 50.9748C125.904 51.0876 125.723 51.198 125.541 51.3036C125.36 51.4117 125.174 51.5149 124.99 51.6157C124.596 51.8318 124.207 52.0574 123.828 52.2927C123.637 52.4127 123.446 52.5327 123.258 52.6552C122.509 53.1449 121.787 53.669 121.094 54.2276C120.4 54.7865 119.735 55.3802 119.101 56.0064C119.023 56.0833 118.944 56.1625 118.865 56.2441C118.708 56.4001 118.555 56.5586 118.409 56.717C118.176 56.9595 117.951 57.2091 117.729 57.4612C116.559 58.797 115.524 60.246 114.637 61.7871C114.192 62.5566 113.788 63.3491 113.425 64.1613C113.151 64.7687 112.9 65.3904 112.674 66.0194C112.523 66.4395 112.382 66.8636 112.251 67.2917C112.187 67.5054 112.125 67.7214 112.065 67.9375C111.862 68.6697 111.693 69.4091 111.555 70.1508C111.442 70.7462 111.352 71.3424 111.283 71.9393C111.247 72.2394 111.218 72.5395 111.192 72.8371C111.13 73.5688 111.099 74.3011 111.098 75.0342C111.093 77.2335 111.359 79.4248 111.889 81.5586C112.005 82.0291 112.135 82.4972 112.277 82.9629C112.349 83.1958 112.425 83.4262 112.502 83.6567C112.695 84.2329 112.909 84.8034 113.144 85.3683C113.284 85.7068 113.432 86.0429 113.587 86.3766C114.573 88.498 115.831 90.4801 117.329 92.2725C117.574 92.5678 117.828 92.8583 118.09 93.1439C118.092 93.1439 118.09 93.1463 118.09 93.1463C118.739 93.8588 119.426 94.5352 120.149 95.1725H120.151C120.44 95.4293 120.733 95.6782 121.032 95.9191C121.034 95.9167 121.034 95.9191 121.034 95.9191C121.335 96.1639 121.638 96.3992 121.948 96.6272C122.103 96.7401 122.26 96.8529 122.42 96.9657C122.733 97.189 123.052 97.4042 123.377 97.6115H123.38C123.704 97.8227 124.033 98.0244 124.367 98.2164C125.038 98.6029 125.725 98.9654 126.431 99.2943L126.551 99.3495L126.672 99.2943C127.805 98.7816 128.972 98.3508 130.165 98.0052C130.428 97.9284 130.693 97.8587 130.955 97.7915C131.618 97.6259 132.286 97.4867 132.959 97.3738C132.304 97.7047 131.671 98.0792 131.065 98.4949C130.595 98.8142 130.132 99.1623 129.667 99.5464C129.512 99.6736 129.356 99.8056 129.201 99.9401L128.815 100.276L129.299 100.437C129.476 100.495 129.652 100.552 129.829 100.605C130.07 100.682 130.308 100.752 130.542 100.816C131.053 100.96 131.567 101.088 132.084 101.198C132.21 101.224 132.334 101.251 132.461 101.277C132.706 101.325 132.955 101.373 133.203 101.416C133.213 101.419 133.223 101.421 133.234 101.421C133.491 101.464 133.751 101.505 134.009 101.541C134.489 101.611 134.968 101.666 135.448 101.707C135.5 101.714 135.553 101.717 135.608 101.719C135.725 101.729 135.839 101.738 135.956 101.745C136.214 101.762 136.474 101.774 136.734 101.784C136.753 101.784 136.77 101.786 136.789 101.786C136.92 101.791 137.051 101.796 137.183 101.798C137.183 101.798 137.183 101.801 137.185 101.798C137.316 101.801 137.447 101.803 137.579 101.803H138.304C138.44 101.803 138.576 101.805 138.714 101.805C138.905 101.805 139.099 101.808 139.289 101.81C139.339 101.81 139.392 101.813 139.444 101.813C139.75 101.817 140.055 101.825 140.361 101.832C140.38 101.832 140.399 101.834 140.418 101.834C140.723 101.844 141.029 101.853 141.334 101.868C141.401 101.87 141.468 101.873 141.537 101.877C141.83 101.889 142.124 101.904 142.417 101.921C142.501 101.925 142.587 101.933 142.673 101.937C142.895 101.949 143.119 101.964 143.341 101.981C143.472 101.988 143.601 101.997 143.732 102.009C144.262 102.05 144.789 102.096 145.319 102.149C145.495 102.163 145.672 102.182 145.848 102.201C146.321 102.252 146.795 102.307 147.271 102.367C147.483 102.391 147.695 102.42 147.908 102.449C147.931 102.451 147.955 102.454 147.979 102.458C148.242 102.494 148.502 102.53 148.764 102.569C148.936 102.593 149.108 102.619 149.28 102.646C149.456 102.672 149.633 102.698 149.809 102.73C149.905 102.744 150 102.761 150.098 102.778C150.327 102.814 150.558 102.852 150.79 102.895C150.811 102.897 150.831 102.9 150.852 102.905C151.343 102.991 151.837 103.082 152.329 103.181C152.618 103.236 152.904 103.294 153.19 103.354C153.414 103.399 153.639 103.447 153.863 103.495C153.901 103.503 153.939 103.512 153.978 103.522C153.986 103.524 153.995 103.526 154.004 103.527C154.343 103.601 154.684 103.678 155.023 103.759C156.199 104.033 157.374 104.337 158.547 104.672C158.816 104.746 159.086 104.825 159.356 104.905C159.47 104.938 159.582 104.972 159.694 105.005C159.928 105.075 160.16 105.145 160.394 105.219C160.599 105.281 160.806 105.346 161.012 105.413C161.14 105.454 161.269 105.495 161.398 105.538C161.598 105.601 161.799 105.666 161.997 105.735C162.166 105.788 162.333 105.843 162.5 105.903C162.739 105.982 162.98 106.064 163.219 106.15C163.288 106.174 163.359 106.198 163.429 106.225C163.72 106.326 164.011 106.429 164.302 106.537C164.586 106.64 164.87 106.746 165.151 106.851C165.347 106.926 165.543 106.998 165.736 107.075C165.953 107.159 166.17 107.243 166.385 107.329C166.695 107.452 167.008 107.576 167.318 107.704C167.604 107.819 167.888 107.937 168.174 108.059C168.227 108.081 168.282 108.102 168.334 108.126C168.582 108.229 168.83 108.337 169.076 108.445C169.236 108.513 169.394 108.582 169.551 108.652C170.238 108.954 170.925 109.267 171.61 109.591H171.613C172.042 109.795 172.479 109.989 172.918 110.174C173.02 110.217 173.123 110.26 173.228 110.301C173.402 110.376 173.579 110.445 173.755 110.517C173.87 110.563 173.984 110.608 174.101 110.652C174.271 110.719 174.442 110.784 174.614 110.846C174.795 110.913 174.974 110.981 175.158 111.043C175.223 111.067 175.287 111.089 175.354 111.113C175.566 111.185 175.778 111.257 175.993 111.326C176.015 111.333 176.036 111.341 176.06 111.348C176.284 111.42 176.509 111.492 176.735 111.559C176.753 111.566 176.772 111.571 176.79 111.576C177.034 111.65 177.282 111.722 177.527 111.792C177.89 111.893 178.255 111.989 178.62 112.078C178.687 112.094 178.754 112.111 178.821 112.126C179.016 112.174 179.21 112.219 179.405 112.262C179.613 112.31 179.823 112.354 180.03 112.397C180.24 112.44 180.45 112.483 180.658 112.522C180.77 112.543 180.882 112.565 180.992 112.584L181.285 112.635C181.488 112.671 181.691 112.702 181.896 112.735C181.902 112.735 181.908 112.736 181.913 112.738C182.144 112.774 182.373 112.807 182.605 112.836C182.827 112.867 183.049 112.894 183.271 112.92C183.316 112.925 183.364 112.93 183.411 112.935C183.595 112.956 183.779 112.978 183.962 112.995C184.015 112.999 184.067 113.004 184.12 113.009C184.301 113.026 184.483 113.043 184.664 113.055C184.7 113.059 184.737 113.062 184.774 113.062C184.936 113.076 185.098 113.088 185.26 113.095C185.375 113.105 185.487 113.11 185.602 113.117C185.661 113.119 185.719 113.122 185.778 113.124C185.936 113.134 186.093 113.139 186.253 113.143C186.446 113.151 186.64 113.155 186.83 113.16C187.062 113.165 187.296 113.167 187.527 113.167H187.532C187.759 113.167 187.988 113.165 188.214 113.16H188.3L188.551 113.153C188.68 113.151 188.808 113.146 188.935 113.141C189.178 113.131 189.419 113.119 189.66 113.105C189.756 113.1 189.854 113.093 189.949 113.088C189.992 113.086 190.037 113.081 190.08 113.079C190.231 113.069 190.378 113.059 190.529 113.047C190.684 113.035 190.841 113.021 190.996 113.004C191.197 112.985 191.397 112.963 191.598 112.942C191.755 112.925 191.913 112.906 192.068 112.887C192.089 112.885 192.109 112.882 192.13 112.877C192.28 112.86 192.43 112.841 192.578 112.819C192.755 112.795 192.929 112.769 193.103 112.743C193.122 112.74 193.139 112.738 193.158 112.735C193.459 112.687 193.762 112.639 194.065 112.584C194.382 112.527 194.699 112.464 195.014 112.399C195.131 112.375 195.246 112.349 195.363 112.325C195.427 112.31 195.494 112.298 195.556 112.284C195.654 112.262 195.749 112.241 195.845 112.217C195.861 112.214 195.881 112.21 195.897 112.207C196.031 112.178 196.162 112.145 196.296 112.111C196.563 112.046 196.825 111.979 197.088 111.907C197.205 111.878 197.322 111.847 197.434 111.816C197.467 111.806 197.501 111.797 197.532 111.787C198.016 111.65 198.496 111.505 198.973 111.353C199.183 111.285 199.39 111.216 199.598 111.141C200.044 110.988 200.486 110.826 200.925 110.656C201.042 110.613 201.158 110.565 201.275 110.52C201.447 110.45 201.619 110.38 201.788 110.311C201.941 110.246 202.094 110.181 202.249 110.114C202.325 110.083 202.402 110.049 202.478 110.015C202.707 109.915 202.936 109.811 203.163 109.708C203.315 109.636 203.466 109.567 203.616 109.495C203.855 109.379 204.091 109.262 204.327 109.144C204.387 109.113 204.444 109.082 204.501 109.053C204.652 108.976 204.802 108.897 204.955 108.82C205.196 108.69 205.437 108.561 205.675 108.426C205.756 108.383 205.835 108.337 205.916 108.292C206.179 108.143 206.439 107.992 206.696 107.838C207.267 107.495 207.829 107.136 208.383 106.763C208.522 106.671 208.66 106.575 208.796 106.482C209.054 106.304 209.307 106.122 209.56 105.939C209.586 105.92 209.61 105.901 209.636 105.884C209.762 105.79 209.889 105.697 210.015 105.601C210.278 105.402 210.538 105.2 210.798 104.993C210.803 104.991 210.81 104.984 210.817 104.979C210.934 104.885 211.051 104.792 211.165 104.698C211.521 104.408 211.872 104.112 212.215 103.808C212.385 103.661 212.552 103.51 212.716 103.359C212.84 103.246 212.964 103.133 213.086 103.018C213.332 102.785 213.573 102.554 213.811 102.319C213.931 102.204 214.048 102.084 214.167 101.964C214.284 101.844 214.403 101.724 214.52 101.601C214.561 101.561 214.601 101.517 214.642 101.474C214.761 101.347 214.88 101.217 215 101.09C215.102 100.98 215.202 100.864 215.305 100.749C215.477 100.557 215.651 100.365 215.82 100.171C215.829 100.16 215.839 100.149 215.849 100.139C215.859 100.127 215.868 100.118 215.875 100.108H215.873C219.341 96.0731 221.918 91.343 223.433 86.2308C224.948 81.1187 225.367 75.7411 224.661 70.454C223.956 65.1668 222.143 60.0906 219.341 55.5614C216.54 51.0322 212.815 47.1531 208.412 44.181Z" fill="#6C63FF"/>
<g opacity="0.15">
<path d="M160.117 15.8518C160.592 17.5707 161.308 19.2131 162.242 20.7298C160.678 19.3782 159.281 17.8429 158.08 16.1568C158.755 16.0285 159.433 15.9268 160.117 15.8518Z" fill="black"/>
<path d="M136.836 42.4354C135.07 43.4051 133.419 44.5729 131.914 45.9164C134.455 42.8935 136.312 39.3508 137.356 35.5339C137.369 35.488 137.382 35.4418 137.394 35.3959L137.429 35.266C138.684 30.7105 141.12 26.5721 144.486 23.2741L144.75 23.0146L144.937 23.3353C145.969 25.1006 147.204 26.7376 148.616 28.2125C146.452 34.3566 142.241 39.4702 136.836 42.4354Z" fill="black"/>
<path d="M149.272 26.0838L149.237 26.2137C149.224 26.2596 149.212 26.3058 149.199 26.3516C149.129 26.6042 149.055 26.8549 148.979 27.1046C148.224 25.1376 147.694 23.0906 147.399 21.0031L147.371 20.826L147.516 20.7219C149.331 19.4093 151.303 18.3307 153.386 17.5115C151.516 20.0985 150.123 23.0019 149.272 26.0838Z" fill="black"/>
<path d="M124.991 51.618C126.554 50.7573 128.016 49.7242 129.352 48.5378C126.684 51.6631 124.772 55.3675 123.765 59.3608C122.757 63.3541 122.683 67.5277 123.547 71.5547C124.412 75.5817 126.191 79.3526 128.746 82.572C131.301 85.7914 134.562 88.3718 138.274 90.111L138.395 90.167L138.515 90.1124C140.52 89.201 142.634 88.5551 144.804 88.1909C143.45 88.8851 142.187 89.7475 141.046 90.758L140.66 91.0938L141.144 91.2546C141.562 91.3937 141.981 91.5217 142.387 91.6352C144.775 92.3043 147.244 92.6367 149.722 92.6226C160.985 92.55 172.334 95.1697 183.456 100.409C185.363 101.306 187.342 102.042 189.37 102.608C198.212 105.085 207.65 104.194 215.879 100.106C211.24 105.504 205.173 109.468 198.385 111.536C191.596 113.605 184.363 113.693 177.526 111.79C175.497 111.224 173.519 110.488 171.612 109.591C160.49 104.352 149.14 101.732 137.878 101.805C135.399 101.819 132.93 101.487 130.543 100.818C130.136 100.704 129.718 100.576 129.3 100.437L128.816 100.276L129.202 99.9403C130.343 98.9299 131.605 98.0674 132.96 97.3733C130.79 97.7375 128.676 98.3833 126.671 99.2947L126.551 99.3494L126.43 99.2933C121.972 97.2058 118.179 93.9131 115.473 89.7827C112.767 85.6523 111.255 80.8466 111.106 75.9019C110.957 70.9573 112.176 66.0682 114.628 61.7801C117.079 57.4921 120.667 53.9739 124.991 51.618Z" fill="black"/>
</g>
</g>
<defs>
<clipPath id="clip0_405_225">
<rect width="225" height="191" fill="white"/>
</clipPath>
</defs>
</svg>
